<mxfile host="app.diagrams.net" modified="2024-04-24T20:37:36.521Z" agent="Mozilla/5.0 (Macintosh; Intel Mac OS X 10_15_7) AppleWebKit/537.36 (KHTML, like Gecko) Chrome/124.0.0.0 Safari/537.36" version="24.3.0" etag="wQrezUgoX2cKqOkqeGAE" type="github">
  <diagram name="Page-1" id="jHCM356dYRt_iald4QaD">
    <mxGraphModel>
      <root>
        <mxCell id="0" />
        <mxCell id="1" parent="0" />
      </root>
    </mxGraphModel>
  </diagram>
</mxfile>
